<?xml version="1.0" encoding="UTF-8" standalone="no"?>
<!-- Uploaded to: SVG Repo, www.svgrepo.com, Generator: SVG Repo Mixer Tools -->

<svg
   width="800px"
   height="800px"
   viewBox="0 0 24 24"
   fill="none"
   version="1.1"
   id="svg3"
   sodipodi:docname="trash-bin-minimalistic-2-svgrepo-com.svg"
   inkscape:version="1.3.2 (091e20ef0f, 2023-11-25, custom)"
   xmlns:inkscape="http://www.inkscape.org/namespaces/inkscape"
   xmlns:sodipodi="http://sodipodi.sourceforge.net/DTD/sodipodi-0.dtd"
   xmlns="http://www.w3.org/2000/svg"
   xmlns:svg="http://www.w3.org/2000/svg">
  <defs
     id="defs3" />
  <sodipodi:namedview
     id="namedview3"
     pagecolor="#ffffff"
     bordercolor="#000000"
     borderopacity="0.25"
     inkscape:showpageshadow="2"
     inkscape:pageopacity="0.0"
     inkscape:pagecheckerboard="0"
     inkscape:deskcolor="#d1d1d1"
     inkscape:zoom="1.4142136"
     inkscape:cx="538.46181"
     inkscape:cy="340.47191"
     inkscape:window-width="2560"
     inkscape:window-height="1371"
     inkscape:window-x="0"
     inkscape:window-y="0"
     inkscape:window-maximized="1"
     inkscape:current-layer="svg3" />
  <path
     d="m 10.303342,2.7401128 c 0.451856,-0.810493 1.379425,-1.286416 2.344009,-1.1219821 0.964585,0.1644339 1.682184,0.9208106 1.839962,1.8352288 0.07041,0.4081765 0.458416,0.6819736 0.866658,0.6115359 C 15.762115,3.9944405 16.035911,3.6064435 15.9655,3.1982768 15.702906,1.677035 14.510185,0.41405095 12.899422,0.13946226 11.288757,-0.13510965 9.7448971,0.661366 8.9931939,2.0096992 8.7914896,2.3714783 8.9212623,2.8282723 9.2830512,3.0299783 9.6448401,3.2316842 10.101636,3.1019017 10.303342,2.7401128 Z"
     fill="#1c274c"
     id="path1"
     inkscape:transform-center-x="6.5738854"
     inkscape:transform-center-y="-3.9281493" />
  <path
     d="M 2.9827434,3.2674783 C 3.05235,2.8591588 3.4397933,2.5845725 3.8481127,2.6541793 L 20.606454,5.510994 c 0.40831,0.069605 0.682906,0.45705 0.6133,0.8653695 -0.0696,0.4083195 -0.457061,0.682904 -0.865371,0.613299 L 3.5960424,4.1328477 C 3.1877229,4.063241 2.9131367,3.6757979 2.9827434,3.2674783 Z"
     fill="#1c274c"
     id="path2"
     inkscape:transform-center-x="6.9099702"
     inkscape:transform-center-y="-1.1869606" />
  <path
     d="M5.11686 7.75166C5.53015 7.72411 5.88753 8.03681 5.91508 8.45011L6.37503 15.3492C6.46488 16.6971 6.52891 17.6349 6.66948 18.3405C6.80583 19.025 6.99616 19.3873 7.26957 19.6431C7.54299 19.8988 7.91715 20.0647 8.60915 20.1552C9.32255 20.2485 10.2626 20.25 11.6134 20.25H12.3868C13.7376 20.25 14.6776 20.2485 15.391 20.1552C16.083 20.0647 16.4572 19.8988 16.7306 19.6431C17.004 19.3873 17.1943 19.025 17.3307 18.3405C17.4712 17.6349 17.5353 16.6971 17.6251 15.3492L18.0851 8.45011C18.1126 8.03681 18.47 7.72411 18.8833 7.75166C19.2966 7.77921 19.6093 8.13659 19.5818 8.54989L19.1183 15.5016C19.0328 16.7844 18.9637 17.8205 18.8018 18.6336C18.6334 19.4789 18.347 20.185 17.7554 20.7384C17.1638 21.2919 16.4402 21.5307 15.5856 21.6425C14.7635 21.75 13.7251 21.75 12.4395 21.75H11.5607C10.2751 21.75 9.23663 21.75 8.41459 21.6425C7.55994 21.5307 6.83639 21.2919 6.2448 20.7384C5.6532 20.185 5.36678 19.4789 5.19838 18.6336C5.03641 17.8205 4.96735 16.7844 4.88186 15.5016L4.41841 8.54989C4.39085 8.13659 4.70356 7.77921 5.11686 7.75166Z"
     fill="#1C274C"
     id="path3" />
</svg>
